<svg width="100" height="80" viewBox="0 0 100 80" fill="none" xmlns="http://www.w3.org/2000/svg">
<path d="M89.3755 55.1365C88.7796 56.967 87.9838 58.6146 87.0213 60.0071C85.6721 61.9383 84.1144 63.4769 82.4213 64.5509C78.2231 66.9375 73.6204 66.9004 69.438 64.4463C67.4472 63.2422 65.6325 61.4176 64.1036 59.0826C62.5746 56.7476 61.3631 53.9507 60.5421 50.8608C60.3359 50.1069 60.1551 49.3366 60.0005 48.5529H90.9088C90.5768 50.8422 90.0616 53.0565 89.3755 55.143V55.1365ZM39.4171 50.8608C38.596 53.9495 37.3849 56.7455 35.8568 59.0803C34.3286 61.4151 32.5151 63.2404 30.5255 64.4463C26.3418 66.902 21.7375 66.9391 17.538 64.5509C15.8452 63.4757 14.2877 61.9373 12.938 60.0071C11.9771 58.6146 11.1814 56.9655 10.588 55.1365C9.90092 53.0552 9.38566 50.8451 9.05464 48.5594H39.9588C39.8005 49.344 39.6255 50.1154 39.4171 50.8608ZM99.838 39.3673C99.7655 38.322 99.6514 37.2848 99.4963 36.2618L59.3546 36.2095C59.7812 30.3907 61.4614 24.975 64.1171 20.8588C65.6296 18.5706 67.4088 16.7727 69.3671 15.5697C72.5113 13.4528 75.9965 12.9177 79.3426 14.0382C82.6887 15.1588 85.731 17.8798 88.0505 21.8264L94.388 12.0851C92.1408 8.28612 89.4132 5.2645 86.3796 3.21327C83.0265 1.00158 79.4164 -0.0894518 75.7796 0.00974467C72.3475 -0.0235948 68.944 0.991186 65.7588 2.99752C62.7101 4.90961 59.9309 7.74418 57.5796 11.3398C55.2364 14.9708 53.3618 19.2773 52.0588 24.0231C50.9888 27.89 50.3328 32.0075 50.1171 36.2095H49.8546C49.6385 32.0048 48.981 27.885 47.9088 24.0165C46.6064 19.2721 44.7317 14.9676 42.388 11.3398C40.0372 7.74325 37.2579 4.90854 34.2088 2.99752C27.5708 -1.06806 20.193 -0.995551 13.588 3.20019C10.5556 5.25739 7.82962 8.28331 5.5838 12.0851L11.9171 21.8264C14.2995 18.0293 17.3393 15.4121 20.6602 14.2989C23.9811 13.1856 27.4372 13.6252 30.6005 15.5632C32.5588 16.7661 34.3421 18.5706 35.8505 20.8588C37.3838 23.2124 38.6005 26.0367 39.4296 29.1487C40.038 31.3977 40.438 33.7775 40.6171 36.2095L0.471305 36.2618C0.157439 38.4704 -0.000457041 40.7265 0.000471462 42.9892C-0.0173197 47.7178 0.468536 52.4178 1.43797 56.8951C2.39093 61.2399 3.92527 65.2145 5.93797 68.552C8.13797 72.2132 10.813 75.0898 13.7713 77.0054C17.0882 79.0782 20.6349 80.0939 24.2046 79.9932C27.638 80.0259 31.038 79.0125 34.2213 77.0054C37.2729 75.0953 40.0539 72.2581 42.4046 68.6566C45.9475 63.1733 48.3896 56.1823 49.4296 48.5464H50.5671C51.6096 56.1827 54.0513 63.1748 57.5921 68.6632C59.9435 72.2617 62.7244 75.0967 65.7755 77.0054C68.9605 79.0125 72.3641 80.0274 75.7963 79.9932C79.3632 80.0928 82.9071 79.0771 86.2213 77.0054C89.1881 75.0933 91.8613 72.2116 94.063 68.552C96.0756 65.2143 97.6099 61.2398 98.563 56.8951C99.5304 52.417 100.016 47.7176 100 42.9892C99.9913 41.778 99.937 40.5686 99.838 39.3673Z" fill="#5E3212"/>
</svg>
